<svg xmlns="http://www.w3.org/2000/svg"  viewBox="0 0 512 512" width="600px" height="600px"><g data-name="5. Coffe Cup"><path fill="#a6806f" d="M160,432.71V504H8a32,32,0,0,1,32.1-32c-.23-22.2,17.7-39.91,39.9-40.32A40,40,0,0,1,119.72,392C141.87,391.85,160,410.55,160,432.71Z"/><path fill="#8d6d5f" d="M8,504c0,.1-3.52,0,152,0V480H18.85A31.9,31.9,0,0,0,8,504Z"/><path d="M160,512H8a8,8,0,0,1-8-8,40.06,40.06,0,0,1,32.59-39.31,48.14,48.14,0,0,1,40-40.35,48.25,48.25,0,0,1,47-40.34c27-.2,48.34,22.5,48.34,48.71V504A8,8,0,0,1,160,512ZM17.37,496H152V432.71c0-17.66-14.48-32.85-32.23-32.71A32.13,32.13,0,0,0,88,431.74a8,8,0,0,1-7.85,7.94C62,440,47.91,454.17,48.1,471.92a8,8,0,0,1-8,8.08A24.11,24.11,0,0,0,17.37,496Z"/><path fill="#a6806f" d="M352,432.71V504H504a32,32,0,0,0-32.1-32c.23-22.2-17.7-39.91-39.9-40.32A40,40,0,0,0,392.28,392C370.13,391.85,352,410.55,352,432.71Z"/><path fill="#8d6d5f" d="M493.15,480H352v24c155.52,0,152,.1,152,0A31.9,31.9,0,0,0,493.15,480Z"/><path d="M504,512H472a8,8,0,0,1,0-16h22.63A24,24,0,0,0,472,480a8.1,8.1,0,0,1-8.1-8.08c.19-17.75-13.89-31.91-32-32.24a8,8,0,0,1-7.85-7.94A32.13,32.13,0,0,0,392.23,400c-17.94-.12-32.23,15.22-32.23,32.71V496h80a8,8,0,0,1,0,16H352a8,8,0,0,1-8-8V432.71c0-26,21.13-48.86,48.34-48.71a48.25,48.25,0,0,1,47,40.34,48.12,48.12,0,0,1,40,40.36A40.06,40.06,0,0,1,512,504,8,8,0,0,1,504,512Z"/><rect width="352" height="48" x="80" y="136" fill="#596060"/><rect width="352" height="24" x="80" y="160" fill="#4c5657"/><path d="M432,192H80a8,8,0,0,1-8-8V136a8,8,0,0,1,8-8H432a8,8,0,0,1,8,8v48A8,8,0,0,1,432,192ZM88,176H424V144H88Z"/><polygon fill="#3f494b" points="384 56 128 56 112 136 400 136 384 56"/><path d="M400,144H112a8,8,0,0,1-7.84-9.57l16-80A8,8,0,0,1,128,48H384a8,8,0,0,1,7.84,6.43l16,80A8,8,0,0,1,400,144ZM121.76,128H390.24l-12.8-64H134.56Z"/><path fill="#ead590" d="M408,184c-2.16,21.63-12.34,123.43-14.4,144H118.85C104.43,188.11,107.3,216,104,184Z"/><polygon fill="#f1cb66" points="408 184 405.6 208 106.48 208 104 184 408 184"/><path d="M393.6,336H118.85a8,8,0,0,1-8-7.18l-11.55-112a8,8,0,0,1,15.92-1.64L126.07,320H386.36l12.8-128H104a8,8,0,0,1,0-16H408a8,8,0,0,1,8,8.8l-14.4,144A8,8,0,0,1,393.6,336Z"/><polygon fill="#e9a648" points="393.6 328 379.2 472 133.7 472 118.85 328 393.6 328"/><path d="M379.2,480H133.7a8,8,0,0,1-8-7.18l-14.85-144a8,8,0,0,1,8-8.82H393.6a8,8,0,0,1,8,8.8l-14.4,144A8,8,0,0,1,379.2,480ZM140.92,464H372l12.8-128h-257Z"/><path d="M361.52,512H151.43a23.94,23.94,0,0,1-23.87-21.54l-1.82-17.64a8,8,0,0,1,8-8.82H379.2a8,8,0,0,1,8,8.8l-1.76,17.59A23.92,23.92,0,0,1,361.52,512ZM142.57,480l.91,8.82a8,8,0,0,0,8,7.18H361.52a8,8,0,0,0,8-7.21l.88-8.79Z"/><path fill="#d0a37f" d="M379.2,472l-1.76,17.59A16,16,0,0,1,361.52,504H151.43a16,16,0,0,1-15.91-14.36L133.7,472Z"/><path d="M361.52,512H151.43a23.94,23.94,0,0,1-23.87-21.54l-1.82-17.64a8,8,0,0,1,8-8.82H379.2a8,8,0,0,1,8,8.8l-1.76,17.59A23.92,23.92,0,0,1,361.52,512ZM142.57,480l.91,8.82a8,8,0,0,0,8,7.18H361.52a8,8,0,0,0,8-7.2l.88-8.8Z"/><rect width="32" height="48" x="168" y="8" fill="#596060"/><path d="M200,64H168a8,8,0,0,1-8-8V8a8,8,0,0,1,8-8h32a8,8,0,0,1,8,8V56A8,8,0,0,1,200,64ZM176,48h16V16H176Z"/><circle cx="256" cy="329" r="96" fill="#e0c3aa"/><path fill="#d0a37f" d="M256,400a96,96,0,0,1-95.19-83.5,96,96,0,1,0,190.38,0A96,96,0,0,1,256,400Z"/><path d="M256,433A104,104,0,1,1,360,329,104.11,104.11,0,0,1,256,433Zm0-192a88,88,0,1,0,88,88A88.1,88.1,0,0,0,256,241Z"/><ellipse cx="256" cy="329" fill="#a6806f" rx="56" ry="48" transform="rotate(-45 255.997 329.002)"/><path fill="#8d6d5f" d="M289.94,341.94c-21.87,21.87-54.79,24.4-73.54,5.66a42.63,42.63,0,0,1-11.46-21.26c-3.15,15.57.53,31.33,11.46,42.26,18.75,18.74,51.67,16.21,73.54-5.66,14.95-14.95,20.86-35.06,17.12-52.28A61.91,61.91,0,0,1,289.94,341.94Z"/><path d="M210.75,374.25c-21.84-21.83-19.3-59.89,5.65-84.85s63-27.49,84.85-5.65,19.3,59.89-5.65,84.85h0C271.2,393,233,396.55,210.75,374.25ZM264,284.84c-12.46,0-25.81,5.4-36.28,15.88-18.72,18.71-21.26,46.62-5.66,62.22s43.51,13.06,62.22-5.66,21.26-46.62,5.66-62.22C283.07,288.19,273.81,284.84,264,284.84Zm25.94,78.1h0Z"/><path d="M210.45,372.33a8,8,0,0,1,2.22-11.1l19.12-12.74a44.09,44.09,0,0,0,17.3-22.66A60.15,60.15,0,0,1,273,294.76l18.24-12A8,8,0,1,1,300,296.08l-18.24,12a44.17,44.17,0,0,0-17.49,22.78,60.13,60.13,0,0,1-23.61,30.91l-19.11,12.75A8,8,0,0,1,210.45,372.33Z"/><rect width="320" height="32" x="96" y="104" fill="#4c5657"/><path d="M416,144H96a8,8,0,0,1-8-8V104a8,8,0,0,1,8-8H416a8,8,0,0,1,8,8v32A8,8,0,0,1,416,144ZM104,128H408V112H104Z"/></g></svg>