<svg xmlns="http://www.w3.org/2000/svg" data-name="Filled outline" viewBox="0 0 64 64" id="discount-coupon"><path fill="#faa307" d="M51.747 9.49 49.08 4.871a1.778 1.778 0 0 0-2.428-.651l-41.569 24a1.777 1.777 0 0 0-.65 2.428L7.1 35.267a6.667 6.667 0 1 1 6.667 11.547l2.222 3.849a2.667 2.667 0 0 0 3.643.976L59.66 28.528a2.667 2.667 0 0 0 .976-3.643l-2.223-3.848A6.666 6.666 0 0 1 51.747 9.49Z"></path><path fill="#ffd100" d="M61 36v-6a2 2 0 0 0-2-2H5a2 2 0 0 0-2 2v6a7.5 7.5 0 0 1 0 15v5a3 3 0 0 0 3 3h52a3 3 0 0 0 3-3v-5a7.5 7.5 0 0 1 0-15Z"></path><circle cx="34" cy="38" r="3" fill="#fff"></circle><circle cx="46" cy="50" r="3" fill="#fff"></circle><path fill="#fff" d="M32.5 51.5a2.109 2.109 0 0 1 .009-2.991l12.077-11.923a2 2 0 0 1 2.828 2.828L35.491 51.491a2.109 2.109 0 0 1-2.991.009Z"></path><g fill="#1e120b"><path d="M23 52a1 1 0 0 0 1-1v-5a1 1 0 0 0-2 0v5a1 1 0 0 0 1 1zm0-10a1 1 0 0 0 1-1v-5a1 1 0 0 0-2 0v5a1 1 0 0 0 1 1z"></path><path d="M6 60h52a4 4 0 0 0 4-4v-5a1 1 0 0 0-1-1 6.5 6.5 0 0 1 0-13 1 1 0 0 0 1-1v-6a2.975 2.975 0 0 0-.611-1.8 3.633 3.633 0 0 0 .113-3.82l-2.222-3.843a1 1 0 0 0-1.366-.367 5.666 5.666 0 1 1-5.667-9.814 1.006 1.006 0 0 0 .366-1.366l-2.667-4.618a2.791 2.791 0 0 0-3.794-1.018L5.2 27H5a3 3 0 0 0-3 3v6a1 1 0 0 0 1 1 6.5 6.5 0 0 1 0 13 1 1 0 0 0-1 1v5a4 4 0 0 0 4 4ZM47.152 5.086a.781.781 0 0 1 1.062.285l2.2 3.808a7.668 7.668 0 0 0 7.6 13.168l1.754 3.038a1.641 1.641 0 0 1-.046 1.713A2.982 2.982 0 0 0 59 27H9.2ZM4 51.941a8.5 8.5 0 0 0 0-16.882V30a1 1 0 0 1 1-1h17v2a1 1 0 0 0 2 0v-2h35a1 1 0 0 1 1 1v5.059a8.5 8.5 0 0 0 0 16.882V56a2 2 0 0 1-2 2H24v-2a1 1 0 0 0-2 0v2H6a2 2 0 0 1-2-2Z"></path><path d="M34 42a4 4 0 1 0-4-4 4 4 0 0 0 4 4zm0-6a2 2 0 1 1-2 2 2 2 0 0 1 2-2zm12 10a4 4 0 1 0 4 4 4 4 0 0 0-4-4zm0 6a2 2 0 1 1 2-2 2 2 0 0 1-2 2zm-15.118-2a3.11 3.11 0 0 0 5.318 2.194l11.921-12.072a3.026 3.026 0 0 0 0-4.243 3.086 3.086 0 0 0-4.238 0L31.806 47.8a3.094 3.094 0 0 0-.924 2.2zm2.329-.78 12.083-11.928a1 1 0 1 1 1.406 1.419L34.78 50.788a1.109 1.109 0 1 1-1.569-1.568z"></path></g></svg>