<svg xmlns="http://www.w3.org/2000/svg"  viewBox="0 0 100 100" width="100px" height="100px"><path fill="#f1bc19" d="M78 13A1 1 0 1 0 78 15A1 1 0 1 0 78 13Z"/><path fill="#f9dbd2" d="M50 12A38 38 0 1 0 50 88A38 38 0 1 0 50 12Z"/><path fill="#f1bc19" d="M84 12A4 4 0 1 0 84 20A4 4 0 1 0 84 12Z"/><path fill="#ee3e54" d="M14 24A2 2 0 1 0 14 28A2 2 0 1 0 14 24Z"/><path fill="#fbcd59" d="M78 75A2 2 0 1 0 78 79 2 2 0 1 0 78 75zM17 74A4 4 0 1 0 17 82 4 4 0 1 0 17 74z"/><path fill="#ee3e54" d="M24 81A2 2 0 1 0 24 85A2 2 0 1 0 24 81Z"/><path fill="#fff" d="M66.483 76.03399999999999A2.483 2.483 0 1 0 66.483 81 2.483 2.483 0 1 0 66.483 76.03399999999999zM16 47A1 1 0 1 0 16 49 1 1 0 1 0 16 47z"/><path fill="#f1bc19" d="M86 30A1 1 0 1 0 86 32A1 1 0 1 0 86 30Z"/><path fill="#fff" d="M80 64A2 2 0 1 0 80 68A2 2 0 1 0 80 64Z"/><g><path fill="#f69272" d="M50 25.625A24.25 24.25 0 1 0 50 74.125A24.25 24.25 0 1 0 50 25.625Z"/><path fill="#472b29" d="M50,74.825c-13.758,0-24.95-11.192-24.95-24.95S36.242,24.925,50,24.925s24.95,11.192,24.95,24.95 S63.758,74.825,50,74.825z M50,26.325c-12.985,0-23.55,10.564-23.55,23.55S37.015,73.425,50,73.425s23.55-10.564,23.55-23.55 S62.985,26.325,50,26.325z"/></g><g><path fill="#472b29" d="M69.424,44.625c-0.214,0-0.412-0.138-0.478-0.353c-0.089-0.288-0.184-0.572-0.284-0.854 c-0.39-1.089-0.885-2.155-1.47-3.169c-0.139-0.239-0.057-0.545,0.183-0.683c0.239-0.139,0.543-0.058,0.683,0.183 c0.616,1.065,1.136,2.187,1.546,3.331c0.106,0.297,0.205,0.595,0.298,0.896c0.082,0.265-0.066,0.544-0.33,0.625 C69.522,44.618,69.473,44.625,69.424,44.625z"/></g><g><path fill="#472b29" d="M50,70.75c-11.511,0-20.875-9.337-20.875-20.813S38.489,29.125,50,29.125 c5.975,0,11.674,2.56,15.636,7.023c0.3,0.337,0.588,0.685,0.865,1.041c0.17,0.218,0.131,0.531-0.088,0.701 c-0.217,0.169-0.531,0.131-0.701-0.088c-0.264-0.339-0.538-0.669-0.823-0.99c-3.773-4.25-9.199-6.688-14.889-6.688 c-10.959,0-19.875,8.888-19.875,19.813S39.041,69.75,50,69.75s19.875-8.888,19.875-19.813c0-0.992-0.074-1.992-0.222-2.973 c-0.041-0.273,0.146-0.527,0.42-0.568c0.271-0.033,0.527,0.146,0.568,0.42c0.155,1.029,0.233,2.079,0.233,3.121 C70.875,61.413,61.511,70.75,50,70.75z"/></g><g><path fill="#fef6aa" d="M50.416 33.125L55.42 43.335 66.59 44.952 58.503 52.887 60.424 64.107 50.416 58.8 40.409 64.107 42.33 52.887 34.243 44.952 45.413 43.335z"/><path fill="#f9e65c" d="M49.828 33.684L49.877 33.586 50.024 33.782 50.073 48.592 33.989 45.061 45.366 43.492zM66.109 45.061L50.613 48.788 60.224 63.793 58.262 52.76z"/><path fill="#472b29" d="M50.282,48.766c-0.018,0-0.036-0.002-0.055-0.006l-15.831-3.519 c-0.135-0.03-0.22-0.164-0.189-0.299c0.03-0.134,0.159-0.219,0.299-0.189l15.831,3.519c0.135,0.03,0.22,0.164,0.189,0.299 C50.5,48.687,50.397,48.766,50.282,48.766z"/><path fill="#472b29" d="M60.198 63.774c-.081 0-.161-.04-.209-.113l-9.932-15.24 16.096-3.472c.136-.026.268.056.297.191.029.135-.057.268-.191.297l-15.385 3.319 9.533 14.631c.076.116.043.271-.072.346C60.293 63.762 60.245 63.774 60.198 63.774zM50.5 41.75c-.138 0-.25-.112-.25-.25v-8c0-.138.112-.25.25-.25s.25.112.25.25v8C50.75 41.638 50.638 41.75 50.5 41.75z"/><path fill="#472b29" d="M50.5 48.75c-.138 0-.25-.112-.25-.25v-2c0-.138.112-.25.25-.25s.25.112.25.25v2C50.75 48.638 50.638 48.75 50.5 48.75zM50.5 44.75c-.138 0-.25-.112-.25-.25v-1c0-.138.112-.25.25-.25s.25.112.25.25v1C50.75 44.638 50.638 44.75 50.5 44.75z"/><path fill="#472b29" d="M44.519 57.979c-.047 0-.095-.013-.137-.04-.115-.076-.148-.23-.073-.347l5.883-9.036c.078-.115.232-.146.347-.073.115.076.148.23.073.347l-5.883 9.036C44.68 57.939 44.6 57.979 44.519 57.979zM40.683 63.878c-.047 0-.094-.013-.137-.04-.115-.075-.148-.23-.073-.347l1.278-1.967c.075-.115.229-.147.347-.073.115.075.148.23.073.347l-1.278 1.967C40.845 63.838 40.765 63.878 40.683 63.878zM42.951 60.457c-.047 0-.094-.013-.136-.04-.116-.075-.149-.23-.074-.346l.639-.983c.075-.115.23-.149.346-.074.116.075.149.23.074.346l-.639.983C43.113 60.417 43.033 60.457 42.951 60.457z"/><path fill="#472b29" d="M60.424,64.607c-0.08,0-0.161-0.02-0.234-0.059l-9.773-5.183l-9.772,5.183 c-0.168,0.089-0.373,0.075-0.527-0.036c-0.154-0.112-0.232-0.302-0.2-0.489l1.877-10.963l-7.9-7.752 c-0.136-0.133-0.184-0.331-0.125-0.512c0.06-0.181,0.216-0.313,0.404-0.34l10.908-1.579l4.887-9.973 c0.168-0.344,0.73-0.344,0.898,0l4.888,9.973l10.908,1.579c0.188,0.027,0.345,0.159,0.404,0.34 c0.059,0.181,0.011,0.379-0.125,0.512l-7.9,7.752l1.877,10.963c0.032,0.188-0.046,0.377-0.2,0.489 C60.63,64.575,60.527,64.607,60.424,64.607z M50.416,58.3c0.08,0,0.161,0.02,0.234,0.059l9.109,4.831l-1.75-10.219 c-0.027-0.161,0.026-0.326,0.143-0.44l7.366-7.228l-10.17-1.473c-0.164-0.024-0.305-0.127-0.378-0.275l-4.555-9.294l-4.554,9.294 c-0.073,0.148-0.214,0.251-0.378,0.275l-10.17,1.473l7.366,7.228c0.116,0.114,0.17,0.279,0.143,0.44l-1.75,10.219l9.108-4.831 C50.255,58.319,50.336,58.3,50.416,58.3z"/></g></svg>